<svg width="18" height="15" viewBox="0 0 18 15" fill="none" xmlns="http://www.w3.org/2000/svg">
<path d="M9.69231 6.84783V1.95652H11.6703V4.07609L16.6154 0L18 1.1413L13.0549 5.21739H15.6264V6.84783H9.69231ZM16.7637 15C14.6374 15 12.5647 14.6128 10.5458 13.8383C8.52626 13.0639 6.7378 12.0312 5.18044 10.7405C3.62242 9.44973 2.36967 7.97201 1.4222 6.30734C0.474066 4.64321 0 2.93478 0 1.18207V0.754076C0 0.60462 0.0164835 0.461957 0.0494505 0.326087H5.83516L6.75 4.42255L3.93132 6.7663C4.62363 7.74456 5.4933 8.66168 6.54033 9.51766C7.5867 10.3736 8.73626 11.1141 9.98901 11.7391L12.8571 9.375L17.8022 10.1902V14.9592C17.6374 14.9728 17.4643 14.9832 17.283 14.9902C17.1016 14.9967 16.9286 15 16.7637 15ZM2.99176 5.21739L4.62363 3.87228L4.2033 1.95652H2.00275C2.08516 2.51359 2.20055 3.06386 2.3489 3.60734C2.49725 4.15082 2.71154 4.6875 2.99176 5.21739ZM11.8434 12.5136C12.4863 12.7446 13.1416 12.928 13.8096 13.0639C14.4768 13.1997 15.1484 13.288 15.8242 13.3288V11.5353L13.5 11.1481L11.8434 12.5136Z" fill="white"/>
</svg>
